<mxfile host="65bd71144e">
    <diagram id="dXKq7PnwYnv-ub_YQ8ip" name="Page-1">
        <mxGraphModel dx="1130" dy="588" grid="1" gridSize="10" guides="1" tooltips="1" connect="1" arrows="1" fold="1" page="1" pageScale="1" pageWidth="1169" pageHeight="827" math="0" shadow="0">
            <root>
                <mxCell id="0"/>
                <mxCell id="1" parent="0"/>
                <mxCell id="4" value="Library" style="shape=umlActor;verticalLabelPosition=bottom;verticalAlign=top;html=1;outlineConnect=0;hachureGap=4;fontFamily=Helvetica;fontSize=20;" parent="1" vertex="1">
                    <mxGeometry x="420" y="300" width="30" height="60" as="geometry"/>
                </mxCell>
                <mxCell id="5" value="books" style="ellipse;shape=cloud;whiteSpace=wrap;html=1;hachureGap=4;fontFamily=Helvetica;fontSize=20;" parent="1" vertex="1">
                    <mxGeometry x="260" y="160" width="120" height="80" as="geometry"/>
                </mxCell>
                <mxCell id="7" value="costumer" style="ellipse;shape=cloud;whiteSpace=wrap;html=1;hachureGap=4;fontFamily=Helvetica;fontSize=20;" vertex="1" parent="1">
                    <mxGeometry x="390" y="160" width="120" height="80" as="geometry"/>
                </mxCell>
                <mxCell id="8NEDUhFNdHEYviL43IFo-8" value="author" style="ellipse;shape=cloud;whiteSpace=wrap;html=1;hachureGap=4;fontFamily=Helvetica;fontSize=20;" vertex="1" parent="1">
                    <mxGeometry x="550" y="160" width="120" height="80" as="geometry"/>
                </mxCell>
            </root>
        </mxGraphModel>
    </diagram>
    <diagram name="Page-2" id="OkdHip_Y9OjWqamlDnYM">
        <mxGraphModel dx="2086" dy="1086" grid="1" gridSize="10" guides="1" tooltips="1" connect="1" arrows="1" fold="1" page="1" pageScale="1" pageWidth="1169" pageHeight="827" math="0" shadow="0">
            <root>
                <mxCell id="JBlKPbe0FthMgiIsMNER-0"/>
                <mxCell id="JBlKPbe0FthMgiIsMNER-1" parent="JBlKPbe0FthMgiIsMNER-0"/>
                <mxCell id="Fh5EQMzz4aoxI1LkGBrK-0" value="&lt;font face=&quot;Helvetica&quot;&gt;books&lt;/font&gt;" style="rounded=1;whiteSpace=wrap;html=1;hachureGap=4;fontFamily=Architects Daughter;fontSource=https%3A%2F%2Ffonts.googleapis.com%2Fcss%3Ffamily%3DArchitects%2BDaughter;fontSize=20;" vertex="1" parent="JBlKPbe0FthMgiIsMNER-1">
                    <mxGeometry x="890" y="230" width="160" height="80" as="geometry"/>
                </mxCell>
                <mxCell id="9dZgAu420XPEwvUgb56n-25" style="edgeStyle=none;curved=1;rounded=0;hachureGap=4;orthogonalLoop=1;jettySize=auto;html=1;exitX=1;exitY=0.5;exitDx=0;exitDy=0;entryX=0;entryY=0.5;entryDx=0;entryDy=0;fontFamily=Helvetica;fontSize=16;startArrow=none;startFill=0;endArrow=none;endFill=0;startSize=14;endSize=14;sourcePerimeterSpacing=8;targetPerimeterSpacing=8;" edge="1" parent="JBlKPbe0FthMgiIsMNER-1" source="Fh5EQMzz4aoxI1LkGBrK-1" target="9dZgAu420XPEwvUgb56n-0">
                    <mxGeometry relative="1" as="geometry"/>
                </mxCell>
                <mxCell id="Fh5EQMzz4aoxI1LkGBrK-1" value="&lt;font face=&quot;Helvetica&quot;&gt;costumer&lt;br&gt;&lt;/font&gt;" style="rounded=1;whiteSpace=wrap;html=1;hachureGap=4;fontFamily=Architects Daughter;fontSource=https%3A%2F%2Ffonts.googleapis.com%2Fcss%3Ffamily%3DArchitects%2BDaughter;fontSize=20;" vertex="1" parent="JBlKPbe0FthMgiIsMNER-1">
                    <mxGeometry x="90" y="220" width="120" height="60" as="geometry"/>
                </mxCell>
                <mxCell id="9dZgAu420XPEwvUgb56n-26" style="edgeStyle=none;curved=1;rounded=0;hachureGap=4;orthogonalLoop=1;jettySize=auto;html=1;exitX=1;exitY=0.5;exitDx=0;exitDy=0;entryX=0;entryY=0.5;entryDx=0;entryDy=0;fontFamily=Helvetica;fontSize=16;startArrow=none;startFill=0;endArrow=none;endFill=0;startSize=14;endSize=14;sourcePerimeterSpacing=8;targetPerimeterSpacing=8;" edge="1" parent="JBlKPbe0FthMgiIsMNER-1" source="9dZgAu420XPEwvUgb56n-0" target="Fh5EQMzz4aoxI1LkGBrK-0">
                    <mxGeometry relative="1" as="geometry"/>
                </mxCell>
                <mxCell id="9dZgAu420XPEwvUgb56n-0" value="buy" style="rhombus;whiteSpace=wrap;html=1;hachureGap=4;fontFamily=Helvetica;fontSize=20;" vertex="1" parent="JBlKPbe0FthMgiIsMNER-1">
                    <mxGeometry x="480" y="210" width="150" height="100" as="geometry"/>
                </mxCell>
                <mxCell id="9dZgAu420XPEwvUgb56n-14" style="edgeStyle=none;curved=1;rounded=0;hachureGap=4;orthogonalLoop=1;jettySize=auto;html=1;exitX=0.5;exitY=1;exitDx=0;exitDy=0;entryX=0.387;entryY=-0.073;entryDx=0;entryDy=0;entryPerimeter=0;fontFamily=Helvetica;fontSize=16;startArrow=none;startFill=0;endArrow=none;endFill=0;startSize=14;endSize=14;sourcePerimeterSpacing=8;targetPerimeterSpacing=8;" edge="1" parent="JBlKPbe0FthMgiIsMNER-1" source="9dZgAu420XPEwvUgb56n-1" target="Fh5EQMzz4aoxI1LkGBrK-1">
                    <mxGeometry relative="1" as="geometry"/>
                </mxCell>
                <mxCell id="9dZgAu420XPEwvUgb56n-1" value="client_id" style="ellipse;whiteSpace=wrap;html=1;hachureGap=4;fontFamily=Helvetica;fontSize=20;" vertex="1" parent="JBlKPbe0FthMgiIsMNER-1">
                    <mxGeometry x="80" y="100" width="90" height="40" as="geometry"/>
                </mxCell>
                <mxCell id="9dZgAu420XPEwvUgb56n-13" style="edgeStyle=none;curved=1;rounded=0;hachureGap=4;orthogonalLoop=1;jettySize=auto;html=1;exitX=0.5;exitY=1;exitDx=0;exitDy=0;entryX=0.874;entryY=-0.022;entryDx=0;entryDy=0;entryPerimeter=0;fontFamily=Helvetica;fontSize=16;startArrow=none;startFill=0;endArrow=none;endFill=0;startSize=14;endSize=14;sourcePerimeterSpacing=8;targetPerimeterSpacing=8;" edge="1" parent="JBlKPbe0FthMgiIsMNER-1" source="9dZgAu420XPEwvUgb56n-2" target="Fh5EQMzz4aoxI1LkGBrK-1">
                    <mxGeometry relative="1" as="geometry"/>
                </mxCell>
                <mxCell id="9dZgAu420XPEwvUgb56n-2" value="full_name" style="ellipse;whiteSpace=wrap;html=1;hachureGap=4;fontFamily=Helvetica;fontSize=20;" vertex="1" parent="JBlKPbe0FthMgiIsMNER-1">
                    <mxGeometry x="200" y="150" width="90" height="40" as="geometry"/>
                </mxCell>
                <mxCell id="9dZgAu420XPEwvUgb56n-15" style="edgeStyle=none;curved=1;rounded=0;hachureGap=4;orthogonalLoop=1;jettySize=auto;html=1;exitX=0.5;exitY=1;exitDx=0;exitDy=0;entryX=0;entryY=0.5;entryDx=0;entryDy=0;fontFamily=Helvetica;fontSize=16;startArrow=none;startFill=0;endArrow=none;endFill=0;startSize=14;endSize=14;sourcePerimeterSpacing=8;targetPerimeterSpacing=8;" edge="1" parent="JBlKPbe0FthMgiIsMNER-1" source="9dZgAu420XPEwvUgb56n-3" target="Fh5EQMzz4aoxI1LkGBrK-1">
                    <mxGeometry relative="1" as="geometry"/>
                </mxCell>
                <mxCell id="9dZgAu420XPEwvUgb56n-3" value="adress" style="ellipse;whiteSpace=wrap;html=1;hachureGap=4;fontFamily=Helvetica;fontSize=20;" vertex="1" parent="JBlKPbe0FthMgiIsMNER-1">
                    <mxGeometry x="30" y="160" width="90" height="40" as="geometry"/>
                </mxCell>
                <mxCell id="9dZgAu420XPEwvUgb56n-12" style="edgeStyle=none;curved=1;rounded=0;hachureGap=4;orthogonalLoop=1;jettySize=auto;html=1;exitX=0.5;exitY=1;exitDx=0;exitDy=0;entryX=0;entryY=0.25;entryDx=0;entryDy=0;fontFamily=Helvetica;fontSize=16;startArrow=none;startFill=0;endArrow=none;endFill=0;startSize=14;endSize=14;sourcePerimeterSpacing=8;targetPerimeterSpacing=8;" edge="1" parent="JBlKPbe0FthMgiIsMNER-1" source="9dZgAu420XPEwvUgb56n-6" target="Fh5EQMzz4aoxI1LkGBrK-0">
                    <mxGeometry relative="1" as="geometry"/>
                </mxCell>
                <mxCell id="9dZgAu420XPEwvUgb56n-6" value="genre" style="ellipse;whiteSpace=wrap;html=1;hachureGap=4;fontFamily=Helvetica;fontSize=20;" vertex="1" parent="JBlKPbe0FthMgiIsMNER-1">
                    <mxGeometry x="770" y="150" width="120" height="60" as="geometry"/>
                </mxCell>
                <mxCell id="9dZgAu420XPEwvUgb56n-11" style="edgeStyle=none;curved=1;rounded=0;hachureGap=4;orthogonalLoop=1;jettySize=auto;html=1;exitX=0.5;exitY=1;exitDx=0;exitDy=0;entryX=0.5;entryY=0;entryDx=0;entryDy=0;fontFamily=Helvetica;fontSize=16;startArrow=none;startFill=0;endArrow=none;endFill=0;startSize=14;endSize=14;sourcePerimeterSpacing=8;targetPerimeterSpacing=8;" edge="1" parent="JBlKPbe0FthMgiIsMNER-1" source="9dZgAu420XPEwvUgb56n-7" target="Fh5EQMzz4aoxI1LkGBrK-0">
                    <mxGeometry relative="1" as="geometry"/>
                </mxCell>
                <mxCell id="9dZgAu420XPEwvUgb56n-7" value="price" style="ellipse;whiteSpace=wrap;html=1;hachureGap=4;fontFamily=Helvetica;fontSize=20;" vertex="1" parent="JBlKPbe0FthMgiIsMNER-1">
                    <mxGeometry x="880" y="90" width="120" height="50" as="geometry"/>
                </mxCell>
                <mxCell id="9dZgAu420XPEwvUgb56n-10" style="edgeStyle=none;curved=1;rounded=0;hachureGap=4;orthogonalLoop=1;jettySize=auto;html=1;exitX=0.5;exitY=1;exitDx=0;exitDy=0;entryX=1;entryY=0.25;entryDx=0;entryDy=0;fontFamily=Helvetica;fontSize=16;endArrow=none;startSize=14;endSize=14;sourcePerimeterSpacing=8;targetPerimeterSpacing=8;startArrow=none;startFill=0;endFill=0;" edge="1" parent="JBlKPbe0FthMgiIsMNER-1" source="9dZgAu420XPEwvUgb56n-8" target="Fh5EQMzz4aoxI1LkGBrK-0">
                    <mxGeometry relative="1" as="geometry"/>
                </mxCell>
                <mxCell id="9dZgAu420XPEwvUgb56n-8" value="fk_author_id" style="ellipse;whiteSpace=wrap;html=1;hachureGap=4;fontFamily=Helvetica;fontSize=20;" vertex="1" parent="JBlKPbe0FthMgiIsMNER-1">
                    <mxGeometry x="1010" y="150" width="120" height="60" as="geometry"/>
                </mxCell>
                <mxCell id="9dZgAu420XPEwvUgb56n-9" value="author" style="rounded=1;whiteSpace=wrap;html=1;hachureGap=4;fontFamily=Helvetica;fontSize=20;" vertex="1" parent="JBlKPbe0FthMgiIsMNER-1">
                    <mxGeometry x="840" y="510" width="170" height="76" as="geometry"/>
                </mxCell>
                <mxCell id="9dZgAu420XPEwvUgb56n-27" style="edgeStyle=none;curved=1;rounded=0;hachureGap=4;orthogonalLoop=1;jettySize=auto;html=1;exitX=0.5;exitY=1;exitDx=0;exitDy=0;entryX=0;entryY=0;entryDx=0;entryDy=0;fontFamily=Helvetica;fontSize=16;startArrow=none;startFill=0;endArrow=none;endFill=0;startSize=14;endSize=14;sourcePerimeterSpacing=8;targetPerimeterSpacing=8;" edge="1" parent="JBlKPbe0FthMgiIsMNER-1" source="9dZgAu420XPEwvUgb56n-16" target="9dZgAu420XPEwvUgb56n-0">
                    <mxGeometry relative="1" as="geometry"/>
                </mxCell>
                <mxCell id="9dZgAu420XPEwvUgb56n-16" value="fk_client_id" style="ellipse;whiteSpace=wrap;html=1;hachureGap=4;fontFamily=Helvetica;fontSize=20;" vertex="1" parent="JBlKPbe0FthMgiIsMNER-1">
                    <mxGeometry x="410" y="90" width="120" height="80" as="geometry"/>
                </mxCell>
                <mxCell id="9dZgAu420XPEwvUgb56n-18" style="edgeStyle=none;curved=1;rounded=0;hachureGap=4;orthogonalLoop=1;jettySize=auto;html=1;exitX=1;exitY=1;exitDx=0;exitDy=0;entryX=0.25;entryY=0;entryDx=0;entryDy=0;fontFamily=Helvetica;fontSize=16;startArrow=none;startFill=0;endArrow=none;endFill=0;startSize=14;endSize=14;sourcePerimeterSpacing=8;targetPerimeterSpacing=8;" edge="1" parent="JBlKPbe0FthMgiIsMNER-1" source="9dZgAu420XPEwvUgb56n-17" target="Fh5EQMzz4aoxI1LkGBrK-0">
                    <mxGeometry relative="1" as="geometry"/>
                </mxCell>
                <mxCell id="9dZgAu420XPEwvUgb56n-17" value="book_id" style="ellipse;whiteSpace=wrap;html=1;hachureGap=4;fontFamily=Helvetica;fontSize=20;" vertex="1" parent="JBlKPbe0FthMgiIsMNER-1">
                    <mxGeometry x="750" y="60" width="120" height="60" as="geometry"/>
                </mxCell>
                <mxCell id="9dZgAu420XPEwvUgb56n-29" style="edgeStyle=none;curved=1;rounded=0;hachureGap=4;orthogonalLoop=1;jettySize=auto;html=1;exitX=1;exitY=0;exitDx=0;exitDy=0;fontFamily=Helvetica;fontSize=16;startArrow=none;startFill=0;endArrow=none;endFill=0;startSize=14;endSize=14;sourcePerimeterSpacing=8;targetPerimeterSpacing=8;" edge="1" parent="JBlKPbe0FthMgiIsMNER-1" source="9dZgAu420XPEwvUgb56n-19" target="9dZgAu420XPEwvUgb56n-9">
                    <mxGeometry relative="1" as="geometry"/>
                </mxCell>
                <mxCell id="9dZgAu420XPEwvUgb56n-19" value="author_id" style="ellipse;whiteSpace=wrap;html=1;hachureGap=4;fontFamily=Helvetica;fontSize=20;" vertex="1" parent="JBlKPbe0FthMgiIsMNER-1">
                    <mxGeometry x="800" y="660" width="120" height="60" as="geometry"/>
                </mxCell>
                <mxCell id="9dZgAu420XPEwvUgb56n-30" style="edgeStyle=none;curved=1;rounded=0;hachureGap=4;orthogonalLoop=1;jettySize=auto;html=1;exitX=0.5;exitY=0;exitDx=0;exitDy=0;entryX=0.681;entryY=1.033;entryDx=0;entryDy=0;entryPerimeter=0;fontFamily=Helvetica;fontSize=16;startArrow=none;startFill=0;endArrow=none;endFill=0;startSize=14;endSize=14;sourcePerimeterSpacing=8;targetPerimeterSpacing=8;" edge="1" parent="JBlKPbe0FthMgiIsMNER-1" source="9dZgAu420XPEwvUgb56n-20" target="9dZgAu420XPEwvUgb56n-9">
                    <mxGeometry relative="1" as="geometry"/>
                </mxCell>
                <mxCell id="9dZgAu420XPEwvUgb56n-20" value="full_name" style="ellipse;whiteSpace=wrap;html=1;hachureGap=4;fontFamily=Helvetica;fontSize=20;" vertex="1" parent="JBlKPbe0FthMgiIsMNER-1">
                    <mxGeometry x="960" y="650" width="120" height="60" as="geometry"/>
                </mxCell>
                <mxCell id="9dZgAu420XPEwvUgb56n-28" style="edgeStyle=none;curved=1;rounded=0;hachureGap=4;orthogonalLoop=1;jettySize=auto;html=1;exitX=1;exitY=0.5;exitDx=0;exitDy=0;entryX=0;entryY=0.75;entryDx=0;entryDy=0;fontFamily=Helvetica;fontSize=16;startArrow=none;startFill=0;endArrow=none;endFill=0;startSize=14;endSize=14;sourcePerimeterSpacing=8;targetPerimeterSpacing=8;" edge="1" parent="JBlKPbe0FthMgiIsMNER-1" source="9dZgAu420XPEwvUgb56n-21" target="9dZgAu420XPEwvUgb56n-9">
                    <mxGeometry relative="1" as="geometry"/>
                </mxCell>
                <mxCell id="9dZgAu420XPEwvUgb56n-21" value="adress" style="ellipse;whiteSpace=wrap;html=1;hachureGap=4;fontFamily=Helvetica;fontSize=20;" vertex="1" parent="JBlKPbe0FthMgiIsMNER-1">
                    <mxGeometry x="620" y="610" width="120" height="60" as="geometry"/>
                </mxCell>
                <mxCell id="9dZgAu420XPEwvUgb56n-23" style="edgeStyle=none;curved=1;rounded=0;hachureGap=4;orthogonalLoop=1;jettySize=auto;html=1;exitX=0;exitY=1;exitDx=0;exitDy=0;entryX=0.5;entryY=0;entryDx=0;entryDy=0;fontFamily=Helvetica;fontSize=16;startArrow=none;startFill=0;endArrow=none;endFill=0;startSize=14;endSize=14;sourcePerimeterSpacing=8;targetPerimeterSpacing=8;" edge="1" parent="JBlKPbe0FthMgiIsMNER-1" source="9dZgAu420XPEwvUgb56n-22" target="Fh5EQMzz4aoxI1LkGBrK-1">
                    <mxGeometry relative="1" as="geometry"/>
                </mxCell>
                <mxCell id="9dZgAu420XPEwvUgb56n-22" value="email" style="ellipse;whiteSpace=wrap;html=1;hachureGap=4;fontFamily=Helvetica;fontSize=20;" vertex="1" parent="JBlKPbe0FthMgiIsMNER-1">
                    <mxGeometry x="190" y="80" width="90" height="40" as="geometry"/>
                </mxCell>
                <mxCell id="9dZgAu420XPEwvUgb56n-32" style="edgeStyle=none;curved=1;rounded=0;hachureGap=4;orthogonalLoop=1;jettySize=auto;html=1;exitX=0.5;exitY=0;exitDx=0;exitDy=0;entryX=0.5;entryY=1;entryDx=0;entryDy=0;fontFamily=Helvetica;fontSize=16;startArrow=none;startFill=0;endArrow=none;endFill=0;startSize=14;endSize=14;sourcePerimeterSpacing=8;targetPerimeterSpacing=8;" edge="1" parent="JBlKPbe0FthMgiIsMNER-1" source="9dZgAu420XPEwvUgb56n-31" target="Fh5EQMzz4aoxI1LkGBrK-0">
                    <mxGeometry relative="1" as="geometry"/>
                </mxCell>
                <mxCell id="9dZgAu420XPEwvUgb56n-33" style="edgeStyle=none;curved=1;rounded=0;hachureGap=4;orthogonalLoop=1;jettySize=auto;html=1;exitX=0.5;exitY=1;exitDx=0;exitDy=0;entryX=0.75;entryY=0;entryDx=0;entryDy=0;fontFamily=Helvetica;fontSize=16;startArrow=none;startFill=0;endArrow=none;endFill=0;startSize=14;endSize=14;sourcePerimeterSpacing=8;targetPerimeterSpacing=8;" edge="1" parent="JBlKPbe0FthMgiIsMNER-1" source="9dZgAu420XPEwvUgb56n-31" target="9dZgAu420XPEwvUgb56n-9">
                    <mxGeometry relative="1" as="geometry"/>
                </mxCell>
                <mxCell id="9dZgAu420XPEwvUgb56n-31" value="written" style="rhombus;whiteSpace=wrap;html=1;hachureGap=4;fontFamily=Helvetica;fontSize=20;" vertex="1" parent="JBlKPbe0FthMgiIsMNER-1">
                    <mxGeometry x="885" y="370" width="170" height="80" as="geometry"/>
                </mxCell>
                <mxCell id="661i53AbUMemtbJ0qF6T-1" style="edgeStyle=none;curved=1;rounded=0;hachureGap=4;orthogonalLoop=1;jettySize=auto;html=1;exitX=0;exitY=1;exitDx=0;exitDy=0;entryX=0.5;entryY=0;entryDx=0;entryDy=0;fontFamily=Helvetica;fontSize=16;startArrow=none;startFill=0;endArrow=none;endFill=0;startSize=14;endSize=14;sourcePerimeterSpacing=8;targetPerimeterSpacing=8;" edge="1" parent="JBlKPbe0FthMgiIsMNER-1" source="661i53AbUMemtbJ0qF6T-0" target="Fh5EQMzz4aoxI1LkGBrK-0">
                    <mxGeometry relative="1" as="geometry"/>
                </mxCell>
                <mxCell id="661i53AbUMemtbJ0qF6T-0" value="title" style="ellipse;whiteSpace=wrap;html=1;hachureGap=4;fontFamily=Helvetica;fontSize=20;" vertex="1" parent="JBlKPbe0FthMgiIsMNER-1">
                    <mxGeometry x="1020" y="60" width="120" height="60" as="geometry"/>
                </mxCell>
                <mxCell id="04OlmhDMLwgW4VPg_z2k-1" style="edgeStyle=orthogonalEdgeStyle;rounded=0;hachureGap=4;orthogonalLoop=1;jettySize=auto;html=1;exitX=1;exitY=0;exitDx=0;exitDy=0;entryX=0;entryY=0.75;entryDx=0;entryDy=0;fontFamily=Helvetica;fontSize=16;startArrow=none;startFill=0;endArrow=none;endFill=0;startSize=14;endSize=14;sourcePerimeterSpacing=8;targetPerimeterSpacing=8;" edge="1" parent="JBlKPbe0FthMgiIsMNER-1" source="04OlmhDMLwgW4VPg_z2k-0" target="Fh5EQMzz4aoxI1LkGBrK-0">
                    <mxGeometry relative="1" as="geometry"/>
                </mxCell>
                <mxCell id="04OlmhDMLwgW4VPg_z2k-0" value="pages" style="ellipse;whiteSpace=wrap;html=1;hachureGap=4;fontFamily=Helvetica;fontSize=20;" vertex="1" parent="JBlKPbe0FthMgiIsMNER-1">
                    <mxGeometry x="730" y="310" width="120" height="60" as="geometry"/>
                </mxCell>
                <mxCell id="JatVZw0r6QvHAQfTa59--1" style="rounded=0;hachureGap=4;orthogonalLoop=1;jettySize=auto;html=1;exitX=0;exitY=1;exitDx=0;exitDy=0;entryX=0.652;entryY=0.086;entryDx=0;entryDy=0;entryPerimeter=0;fontFamily=Helvetica;fontSize=16;startArrow=none;startFill=0;endArrow=none;endFill=0;startSize=14;endSize=14;sourcePerimeterSpacing=8;targetPerimeterSpacing=8;" edge="1" parent="JBlKPbe0FthMgiIsMNER-1" source="JatVZw0r6QvHAQfTa59--0" target="9dZgAu420XPEwvUgb56n-0">
                    <mxGeometry relative="1" as="geometry"/>
                </mxCell>
                <mxCell id="JatVZw0r6QvHAQfTa59--0" value="buy_date" style="ellipse;whiteSpace=wrap;html=1;hachureGap=4;fontFamily=Helvetica;fontSize=20;" vertex="1" parent="JBlKPbe0FthMgiIsMNER-1">
                    <mxGeometry x="570" y="100" width="120" height="80" as="geometry"/>
                </mxCell>
            </root>
        </mxGraphModel>
    </diagram>
    <diagram name="Page-3" id="_JYsKZG3wpr6rLHaj3d0">
        <mxGraphModel dx="1695" dy="883" grid="1" gridSize="10" guides="1" tooltips="1" connect="1" arrows="1" fold="1" page="1" pageScale="1" pageWidth="1169" pageHeight="827" math="0" shadow="0">
            <root>
                <mxCell id="PeMHxd4XZboshJ6FAap4-0"/>
                <mxCell id="PeMHxd4XZboshJ6FAap4-1" parent="PeMHxd4XZboshJ6FAap4-0"/>
                <mxCell id="SZEonW0BFpjzzMvy_RQm-4" value="costumer" style="swimlane;fontStyle=0;childLayout=stackLayout;horizontal=1;startSize=26;fillColor=none;horizontalStack=0;resizeParent=1;resizeParentMax=0;resizeLast=0;collapsible=1;marginBottom=0;hachureGap=4;fontFamily=Helvetica;fontSize=20;" vertex="1" parent="PeMHxd4XZboshJ6FAap4-1">
                    <mxGeometry x="10" y="90" width="220" height="220" as="geometry"/>
                </mxCell>
                <mxCell id="SZEonW0BFpjzzMvy_RQm-5" value="client_id: int" style="text;strokeColor=none;fillColor=none;align=left;verticalAlign=top;spacingLeft=4;spacingRight=4;overflow=hidden;rotatable=0;points=[[0,0.5],[1,0.5]];portConstraint=eastwest;hachureGap=4;fontFamily=Helvetica;fontSize=20;" vertex="1" parent="SZEonW0BFpjzzMvy_RQm-4">
                    <mxGeometry y="26" width="220" height="34" as="geometry"/>
                </mxCell>
                <mxCell id="SZEonW0BFpjzzMvy_RQm-6" value="full_name: varchar" style="text;strokeColor=none;fillColor=none;align=left;verticalAlign=top;spacingLeft=4;spacingRight=4;overflow=hidden;rotatable=0;points=[[0,0.5],[1,0.5]];portConstraint=eastwest;hachureGap=4;fontFamily=Helvetica;fontSize=20;" vertex="1" parent="SZEonW0BFpjzzMvy_RQm-4">
                    <mxGeometry y="60" width="220" height="38" as="geometry"/>
                </mxCell>
                <mxCell id="C0TAaZynwkwxfWwVMMo2-5" value="adress: varchar" style="text;strokeColor=none;fillColor=none;align=left;verticalAlign=top;spacingLeft=4;spacingRight=4;overflow=hidden;rotatable=0;points=[[0,0.5],[1,0.5]];portConstraint=eastwest;hachureGap=4;fontFamily=Helvetica;fontSize=20;" vertex="1" parent="SZEonW0BFpjzzMvy_RQm-4">
                    <mxGeometry y="98" width="220" height="42" as="geometry"/>
                </mxCell>
                <mxCell id="7fc_bjMwYbjjYPFKOHlp-0" value="fk_book_id: int" style="text;strokeColor=none;fillColor=none;align=left;verticalAlign=top;spacingLeft=4;spacingRight=4;overflow=hidden;rotatable=0;points=[[0,0.5],[1,0.5]];portConstraint=eastwest;hachureGap=4;fontFamily=Helvetica;fontSize=20;" vertex="1" parent="SZEonW0BFpjzzMvy_RQm-4">
                    <mxGeometry y="140" width="220" height="38" as="geometry"/>
                </mxCell>
                <mxCell id="C0TAaZynwkwxfWwVMMo2-6" value="email: varchar" style="text;strokeColor=none;fillColor=none;align=left;verticalAlign=top;spacingLeft=4;spacingRight=4;overflow=hidden;rotatable=0;points=[[0,0.5],[1,0.5]];portConstraint=eastwest;hachureGap=4;fontFamily=Helvetica;fontSize=20;" vertex="1" parent="SZEonW0BFpjzzMvy_RQm-4">
                    <mxGeometry y="178" width="220" height="42" as="geometry"/>
                </mxCell>
                <mxCell id="r-RufOugGQYmRsCTYM7m-4" value="books" style="swimlane;fontStyle=0;childLayout=stackLayout;horizontal=1;startSize=26;fillColor=none;horizontalStack=0;resizeParent=1;resizeParentMax=0;resizeLast=0;collapsible=1;marginBottom=0;hachureGap=4;fontFamily=Helvetica;fontSize=20;" vertex="1" parent="PeMHxd4XZboshJ6FAap4-1">
                    <mxGeometry x="620" y="90" width="220" height="268" as="geometry"/>
                </mxCell>
                <mxCell id="r-RufOugGQYmRsCTYM7m-5" value="book_id: int" style="text;strokeColor=none;fillColor=none;align=left;verticalAlign=top;spacingLeft=4;spacingRight=4;overflow=hidden;rotatable=0;points=[[0,0.5],[1,0.5]];portConstraint=eastwest;hachureGap=4;fontFamily=Helvetica;fontSize=20;" vertex="1" parent="r-RufOugGQYmRsCTYM7m-4">
                    <mxGeometry y="26" width="220" height="34" as="geometry"/>
                </mxCell>
                <mxCell id="r-RufOugGQYmRsCTYM7m-6" value="title: varchar" style="text;strokeColor=none;fillColor=none;align=left;verticalAlign=top;spacingLeft=4;spacingRight=4;overflow=hidden;rotatable=0;points=[[0,0.5],[1,0.5]];portConstraint=eastwest;hachureGap=4;fontFamily=Helvetica;fontSize=20;" vertex="1" parent="r-RufOugGQYmRsCTYM7m-4">
                    <mxGeometry y="60" width="220" height="40" as="geometry"/>
                </mxCell>
                <mxCell id="r-RufOugGQYmRsCTYM7m-7" value="fk_author_id: int" style="text;strokeColor=none;fillColor=none;align=left;verticalAlign=top;spacingLeft=4;spacingRight=4;overflow=hidden;rotatable=0;points=[[0,0.5],[1,0.5]];portConstraint=eastwest;hachureGap=4;fontFamily=Helvetica;fontSize=20;" vertex="1" parent="r-RufOugGQYmRsCTYM7m-4">
                    <mxGeometry y="100" width="220" height="42" as="geometry"/>
                </mxCell>
                <mxCell id="Ycz1tzYPWYUBirygHmMo-0" value="price: int" style="text;strokeColor=none;fillColor=none;align=left;verticalAlign=top;spacingLeft=4;spacingRight=4;overflow=hidden;rotatable=0;points=[[0,0.5],[1,0.5]];portConstraint=eastwest;hachureGap=4;fontFamily=Helvetica;fontSize=20;" vertex="1" parent="r-RufOugGQYmRsCTYM7m-4">
                    <mxGeometry y="142" width="220" height="42" as="geometry"/>
                </mxCell>
                <mxCell id="0nxmlxCh6NBxa9JEsSpn-0" value="genre: varchar" style="text;strokeColor=none;fillColor=none;align=left;verticalAlign=top;spacingLeft=4;spacingRight=4;overflow=hidden;rotatable=0;points=[[0,0.5],[1,0.5]];portConstraint=eastwest;hachureGap=4;fontFamily=Helvetica;fontSize=20;" vertex="1" parent="r-RufOugGQYmRsCTYM7m-4">
                    <mxGeometry y="184" width="220" height="42" as="geometry"/>
                </mxCell>
                <mxCell id="r-RufOugGQYmRsCTYM7m-8" value="pages: int" style="text;strokeColor=none;fillColor=none;align=left;verticalAlign=top;spacingLeft=4;spacingRight=4;overflow=hidden;rotatable=0;points=[[0,0.5],[1,0.5]];portConstraint=eastwest;hachureGap=4;fontFamily=Helvetica;fontSize=20;" vertex="1" parent="r-RufOugGQYmRsCTYM7m-4">
                    <mxGeometry y="226" width="220" height="42" as="geometry"/>
                </mxCell>
                <mxCell id="Ycz1tzYPWYUBirygHmMo-1" value="author" style="swimlane;fontStyle=0;childLayout=stackLayout;horizontal=1;startSize=26;fillColor=none;horizontalStack=0;resizeParent=1;resizeParentMax=0;resizeLast=0;collapsible=1;marginBottom=0;hachureGap=4;fontFamily=Helvetica;fontSize=20;" vertex="1" parent="PeMHxd4XZboshJ6FAap4-1">
                    <mxGeometry x="930" y="100" width="230" height="142" as="geometry"/>
                </mxCell>
                <mxCell id="Ycz1tzYPWYUBirygHmMo-2" value="author_id: int" style="text;strokeColor=none;fillColor=none;align=left;verticalAlign=top;spacingLeft=4;spacingRight=4;overflow=hidden;rotatable=0;points=[[0,0.5],[1,0.5]];portConstraint=eastwest;hachureGap=4;fontFamily=Helvetica;fontSize=20;" vertex="1" parent="Ycz1tzYPWYUBirygHmMo-1">
                    <mxGeometry y="26" width="230" height="34" as="geometry"/>
                </mxCell>
                <mxCell id="Ycz1tzYPWYUBirygHmMo-3" value="full_name: varchar" style="text;strokeColor=none;fillColor=none;align=left;verticalAlign=top;spacingLeft=4;spacingRight=4;overflow=hidden;rotatable=0;points=[[0,0.5],[1,0.5]];portConstraint=eastwest;hachureGap=4;fontFamily=Helvetica;fontSize=20;" vertex="1" parent="Ycz1tzYPWYUBirygHmMo-1">
                    <mxGeometry y="60" width="230" height="40" as="geometry"/>
                </mxCell>
                <mxCell id="Ycz1tzYPWYUBirygHmMo-4" value="adress: varchar" style="text;strokeColor=none;fillColor=none;align=left;verticalAlign=top;spacingLeft=4;spacingRight=4;overflow=hidden;rotatable=0;points=[[0,0.5],[1,0.5]];portConstraint=eastwest;hachureGap=4;fontFamily=Helvetica;fontSize=20;" vertex="1" parent="Ycz1tzYPWYUBirygHmMo-1">
                    <mxGeometry y="100" width="230" height="42" as="geometry"/>
                </mxCell>
                <mxCell id="7W_mpZj5gNhe1fXy0HIs-0" style="edgeStyle=orthogonalEdgeStyle;rounded=0;hachureGap=4;orthogonalLoop=1;jettySize=auto;html=1;exitX=1;exitY=0.5;exitDx=0;exitDy=0;entryX=0;entryY=0.25;entryDx=0;entryDy=0;fontFamily=Helvetica;fontSize=16;startArrow=ERmany;startFill=0;endArrow=ERone;endFill=0;startSize=14;endSize=14;sourcePerimeterSpacing=8;targetPerimeterSpacing=8;" edge="1" parent="PeMHxd4XZboshJ6FAap4-1" source="r-RufOugGQYmRsCTYM7m-7" target="Ycz1tzYPWYUBirygHmMo-1">
                    <mxGeometry relative="1" as="geometry"/>
                </mxCell>
                <mxCell id="ILGlRXSoPBZoL89StTvT-0" value="buy" style="swimlane;fontStyle=0;childLayout=stackLayout;horizontal=1;startSize=26;fillColor=none;horizontalStack=0;resizeParent=1;resizeParentMax=0;resizeLast=0;collapsible=1;marginBottom=0;hachureGap=4;fontFamily=Helvetica;fontSize=20;" vertex="1" parent="PeMHxd4XZboshJ6FAap4-1">
                    <mxGeometry x="310" y="90" width="220" height="184" as="geometry"/>
                </mxCell>
                <mxCell id="ILGlRXSoPBZoL89StTvT-3" value="buy_id: int" style="text;strokeColor=none;fillColor=none;align=left;verticalAlign=top;spacingLeft=4;spacingRight=4;overflow=hidden;rotatable=0;points=[[0,0.5],[1,0.5]];portConstraint=eastwest;hachureGap=4;fontFamily=Helvetica;fontSize=20;" vertex="1" parent="ILGlRXSoPBZoL89StTvT-0">
                    <mxGeometry y="26" width="220" height="42" as="geometry"/>
                </mxCell>
                <mxCell id="ILGlRXSoPBZoL89StTvT-2" value="buy_date: int" style="text;strokeColor=none;fillColor=none;align=left;verticalAlign=top;spacingLeft=4;spacingRight=4;overflow=hidden;rotatable=0;points=[[0,0.5],[1,0.5]];portConstraint=eastwest;hachureGap=4;fontFamily=Helvetica;fontSize=20;" vertex="1" parent="ILGlRXSoPBZoL89StTvT-0">
                    <mxGeometry y="68" width="220" height="40" as="geometry"/>
                </mxCell>
                <mxCell id="ILGlRXSoPBZoL89StTvT-1" value="fk_client_id: int" style="text;strokeColor=none;fillColor=none;align=left;verticalAlign=top;spacingLeft=4;spacingRight=4;overflow=hidden;rotatable=0;points=[[0,0.5],[1,0.5]];portConstraint=eastwest;hachureGap=4;fontFamily=Helvetica;fontSize=20;" vertex="1" parent="ILGlRXSoPBZoL89StTvT-0">
                    <mxGeometry y="108" width="220" height="34" as="geometry"/>
                </mxCell>
                <mxCell id="ILGlRXSoPBZoL89StTvT-4" value="fk_book_id" style="text;strokeColor=none;fillColor=none;align=left;verticalAlign=top;spacingLeft=4;spacingRight=4;overflow=hidden;rotatable=0;points=[[0,0.5],[1,0.5]];portConstraint=eastwest;hachureGap=4;fontFamily=Helvetica;fontSize=20;" vertex="1" parent="ILGlRXSoPBZoL89StTvT-0">
                    <mxGeometry y="142" width="220" height="42" as="geometry"/>
                </mxCell>
                <mxCell id="ip0H5LPEsQozzF9J-rxk-0" style="edgeStyle=orthogonalEdgeStyle;rounded=0;hachureGap=4;orthogonalLoop=1;jettySize=auto;html=1;exitX=1;exitY=0.5;exitDx=0;exitDy=0;entryX=0;entryY=0.5;entryDx=0;entryDy=0;fontFamily=Helvetica;fontSize=16;startArrow=none;startFill=0;endArrow=none;endFill=0;startSize=14;endSize=14;sourcePerimeterSpacing=8;targetPerimeterSpacing=8;" edge="1" parent="PeMHxd4XZboshJ6FAap4-1" source="SZEonW0BFpjzzMvy_RQm-5" target="ILGlRXSoPBZoL89StTvT-1">
                    <mxGeometry relative="1" as="geometry"/>
                </mxCell>
                <mxCell id="ip0H5LPEsQozzF9J-rxk-1" style="edgeStyle=orthogonalEdgeStyle;rounded=0;hachureGap=4;orthogonalLoop=1;jettySize=auto;html=1;exitX=1;exitY=0.5;exitDx=0;exitDy=0;entryX=0;entryY=0.5;entryDx=0;entryDy=0;fontFamily=Helvetica;fontSize=16;startArrow=none;startFill=0;endArrow=none;endFill=0;startSize=14;endSize=14;sourcePerimeterSpacing=8;targetPerimeterSpacing=8;" edge="1" parent="PeMHxd4XZboshJ6FAap4-1" source="ILGlRXSoPBZoL89StTvT-4" target="r-RufOugGQYmRsCTYM7m-5">
                    <mxGeometry relative="1" as="geometry"/>
                </mxCell>
            </root>
        </mxGraphModel>
    </diagram>
    <diagram name="Page-4" id="uIGP-5_iu9Dd6uLAJ7Z4">
        <mxGraphModel dx="1695" dy="883" grid="1" gridSize="10" guides="1" tooltips="1" connect="1" arrows="1" fold="1" page="1" pageScale="1" pageWidth="1169" pageHeight="827" math="0" shadow="0">
            <root>
                <mxCell id="EFiuUMdO6zvA_WgakpX5-0"/>
                <mxCell id="EFiuUMdO6zvA_WgakpX5-1" parent="EFiuUMdO6zvA_WgakpX5-0"/>
                <mxCell id="EFiuUMdO6zvA_WgakpX5-2" value="costumer" style="swimlane;fontStyle=0;childLayout=stackLayout;horizontal=1;startSize=26;fillColor=none;horizontalStack=0;resizeParent=1;resizeParentMax=0;resizeLast=0;collapsible=1;marginBottom=0;hachureGap=4;fontFamily=Helvetica;fontSize=20;" vertex="1" parent="EFiuUMdO6zvA_WgakpX5-1">
                    <mxGeometry x="100" y="100" width="220" height="220" as="geometry"/>
                </mxCell>
                <mxCell id="EFiuUMdO6zvA_WgakpX5-3" value="client_id: int" style="text;strokeColor=none;fillColor=none;align=left;verticalAlign=top;spacingLeft=4;spacingRight=4;overflow=hidden;rotatable=0;points=[[0,0.5],[1,0.5]];portConstraint=eastwest;hachureGap=4;fontFamily=Helvetica;fontSize=20;" vertex="1" parent="EFiuUMdO6zvA_WgakpX5-2">
                    <mxGeometry y="26" width="220" height="34" as="geometry"/>
                </mxCell>
                <mxCell id="EFiuUMdO6zvA_WgakpX5-4" value="full_name: varchar" style="text;strokeColor=none;fillColor=none;align=left;verticalAlign=top;spacingLeft=4;spacingRight=4;overflow=hidden;rotatable=0;points=[[0,0.5],[1,0.5]];portConstraint=eastwest;hachureGap=4;fontFamily=Helvetica;fontSize=20;" vertex="1" parent="EFiuUMdO6zvA_WgakpX5-2">
                    <mxGeometry y="60" width="220" height="38" as="geometry"/>
                </mxCell>
                <mxCell id="EFiuUMdO6zvA_WgakpX5-5" value="fk_address_id: int" style="text;strokeColor=none;fillColor=none;align=left;verticalAlign=top;spacingLeft=4;spacingRight=4;overflow=hidden;rotatable=0;points=[[0,0.5],[1,0.5]];portConstraint=eastwest;hachureGap=4;fontFamily=Helvetica;fontSize=20;" vertex="1" parent="EFiuUMdO6zvA_WgakpX5-2">
                    <mxGeometry y="98" width="220" height="42" as="geometry"/>
                </mxCell>
                <mxCell id="EFiuUMdO6zvA_WgakpX5-6" value="fk_book_id: int" style="text;strokeColor=none;fillColor=none;align=left;verticalAlign=top;spacingLeft=4;spacingRight=4;overflow=hidden;rotatable=0;points=[[0,0.5],[1,0.5]];portConstraint=eastwest;hachureGap=4;fontFamily=Helvetica;fontSize=20;" vertex="1" parent="EFiuUMdO6zvA_WgakpX5-2">
                    <mxGeometry y="140" width="220" height="38" as="geometry"/>
                </mxCell>
                <mxCell id="EFiuUMdO6zvA_WgakpX5-7" value="email: varchar" style="text;strokeColor=none;fillColor=none;align=left;verticalAlign=top;spacingLeft=4;spacingRight=4;overflow=hidden;rotatable=0;points=[[0,0.5],[1,0.5]];portConstraint=eastwest;hachureGap=4;fontFamily=Helvetica;fontSize=20;" vertex="1" parent="EFiuUMdO6zvA_WgakpX5-2">
                    <mxGeometry y="178" width="220" height="42" as="geometry"/>
                </mxCell>
                <mxCell id="EFiuUMdO6zvA_WgakpX5-8" value="books" style="swimlane;fontStyle=0;childLayout=stackLayout;horizontal=1;startSize=26;fillColor=none;horizontalStack=0;resizeParent=1;resizeParentMax=0;resizeLast=0;collapsible=1;marginBottom=0;hachureGap=4;fontFamily=Helvetica;fontSize=20;" vertex="1" parent="EFiuUMdO6zvA_WgakpX5-1">
                    <mxGeometry x="470" y="100" width="220" height="268" as="geometry"/>
                </mxCell>
                <mxCell id="EFiuUMdO6zvA_WgakpX5-9" value="book_id: int" style="text;strokeColor=none;fillColor=none;align=left;verticalAlign=top;spacingLeft=4;spacingRight=4;overflow=hidden;rotatable=0;points=[[0,0.5],[1,0.5]];portConstraint=eastwest;hachureGap=4;fontFamily=Helvetica;fontSize=20;" vertex="1" parent="EFiuUMdO6zvA_WgakpX5-8">
                    <mxGeometry y="26" width="220" height="34" as="geometry"/>
                </mxCell>
                <mxCell id="EFiuUMdO6zvA_WgakpX5-10" value="title: varchar" style="text;strokeColor=none;fillColor=none;align=left;verticalAlign=top;spacingLeft=4;spacingRight=4;overflow=hidden;rotatable=0;points=[[0,0.5],[1,0.5]];portConstraint=eastwest;hachureGap=4;fontFamily=Helvetica;fontSize=20;" vertex="1" parent="EFiuUMdO6zvA_WgakpX5-8">
                    <mxGeometry y="60" width="220" height="40" as="geometry"/>
                </mxCell>
                <mxCell id="EFiuUMdO6zvA_WgakpX5-11" value="fk_author_id: int" style="text;strokeColor=none;fillColor=none;align=left;verticalAlign=top;spacingLeft=4;spacingRight=4;overflow=hidden;rotatable=0;points=[[0,0.5],[1,0.5]];portConstraint=eastwest;hachureGap=4;fontFamily=Helvetica;fontSize=20;" vertex="1" parent="EFiuUMdO6zvA_WgakpX5-8">
                    <mxGeometry y="100" width="220" height="42" as="geometry"/>
                </mxCell>
                <mxCell id="EFiuUMdO6zvA_WgakpX5-12" value="price: int" style="text;strokeColor=none;fillColor=none;align=left;verticalAlign=top;spacingLeft=4;spacingRight=4;overflow=hidden;rotatable=0;points=[[0,0.5],[1,0.5]];portConstraint=eastwest;hachureGap=4;fontFamily=Helvetica;fontSize=20;" vertex="1" parent="EFiuUMdO6zvA_WgakpX5-8">
                    <mxGeometry y="142" width="220" height="42" as="geometry"/>
                </mxCell>
                <mxCell id="EFiuUMdO6zvA_WgakpX5-13" value="genre: varchar" style="text;strokeColor=none;fillColor=none;align=left;verticalAlign=top;spacingLeft=4;spacingRight=4;overflow=hidden;rotatable=0;points=[[0,0.5],[1,0.5]];portConstraint=eastwest;hachureGap=4;fontFamily=Helvetica;fontSize=20;" vertex="1" parent="EFiuUMdO6zvA_WgakpX5-8">
                    <mxGeometry y="184" width="220" height="42" as="geometry"/>
                </mxCell>
                <mxCell id="EFiuUMdO6zvA_WgakpX5-14" value="pages: int" style="text;strokeColor=none;fillColor=none;align=left;verticalAlign=top;spacingLeft=4;spacingRight=4;overflow=hidden;rotatable=0;points=[[0,0.5],[1,0.5]];portConstraint=eastwest;hachureGap=4;fontFamily=Helvetica;fontSize=20;" vertex="1" parent="EFiuUMdO6zvA_WgakpX5-8">
                    <mxGeometry y="226" width="220" height="42" as="geometry"/>
                </mxCell>
                <mxCell id="EFiuUMdO6zvA_WgakpX5-15" value="author" style="swimlane;fontStyle=0;childLayout=stackLayout;horizontal=1;startSize=26;fillColor=none;horizontalStack=0;resizeParent=1;resizeParentMax=0;resizeLast=0;collapsible=1;marginBottom=0;hachureGap=4;fontFamily=Helvetica;fontSize=20;" vertex="1" parent="EFiuUMdO6zvA_WgakpX5-1">
                    <mxGeometry x="880" y="100" width="230" height="142" as="geometry"/>
                </mxCell>
                <mxCell id="EFiuUMdO6zvA_WgakpX5-16" value="author_id: int" style="text;strokeColor=none;fillColor=none;align=left;verticalAlign=top;spacingLeft=4;spacingRight=4;overflow=hidden;rotatable=0;points=[[0,0.5],[1,0.5]];portConstraint=eastwest;hachureGap=4;fontFamily=Helvetica;fontSize=20;" vertex="1" parent="EFiuUMdO6zvA_WgakpX5-15">
                    <mxGeometry y="26" width="230" height="34" as="geometry"/>
                </mxCell>
                <mxCell id="EFiuUMdO6zvA_WgakpX5-17" value="full_name: varchar" style="text;strokeColor=none;fillColor=none;align=left;verticalAlign=top;spacingLeft=4;spacingRight=4;overflow=hidden;rotatable=0;points=[[0,0.5],[1,0.5]];portConstraint=eastwest;hachureGap=4;fontFamily=Helvetica;fontSize=20;" vertex="1" parent="EFiuUMdO6zvA_WgakpX5-15">
                    <mxGeometry y="60" width="230" height="40" as="geometry"/>
                </mxCell>
                <mxCell id="EFiuUMdO6zvA_WgakpX5-18" value="adress: varchar" style="text;strokeColor=none;fillColor=none;align=left;verticalAlign=top;spacingLeft=4;spacingRight=4;overflow=hidden;rotatable=0;points=[[0,0.5],[1,0.5]];portConstraint=eastwest;hachureGap=4;fontFamily=Helvetica;fontSize=20;" vertex="1" parent="EFiuUMdO6zvA_WgakpX5-15">
                    <mxGeometry y="100" width="230" height="42" as="geometry"/>
                </mxCell>
                <mxCell id="EFiuUMdO6zvA_WgakpX5-19" style="edgeStyle=orthogonalEdgeStyle;rounded=0;hachureGap=4;orthogonalLoop=1;jettySize=auto;html=1;exitX=1;exitY=0.5;exitDx=0;exitDy=0;entryX=0;entryY=0.25;entryDx=0;entryDy=0;fontFamily=Helvetica;fontSize=16;startArrow=ERmany;startFill=0;endArrow=ERone;endFill=0;startSize=14;endSize=14;sourcePerimeterSpacing=8;targetPerimeterSpacing=8;" edge="1" parent="EFiuUMdO6zvA_WgakpX5-1" source="EFiuUMdO6zvA_WgakpX5-11" target="EFiuUMdO6zvA_WgakpX5-15">
                    <mxGeometry relative="1" as="geometry"/>
                </mxCell>
                <mxCell id="EFiuUMdO6zvA_WgakpX5-20" style="edgeStyle=orthogonalEdgeStyle;rounded=0;hachureGap=4;orthogonalLoop=1;jettySize=auto;html=1;exitX=1;exitY=0.5;exitDx=0;exitDy=0;entryX=0;entryY=0.5;entryDx=0;entryDy=0;fontFamily=Helvetica;fontSize=16;startArrow=ERmany;startFill=0;endArrow=ERmany;endFill=0;startSize=14;endSize=14;sourcePerimeterSpacing=8;targetPerimeterSpacing=8;" edge="1" parent="EFiuUMdO6zvA_WgakpX5-1" source="EFiuUMdO6zvA_WgakpX5-6" target="EFiuUMdO6zvA_WgakpX5-9">
                    <mxGeometry relative="1" as="geometry"/>
                </mxCell>
                <mxCell id="EFiuUMdO6zvA_WgakpX5-21" value="adress" style="swimlane;fontStyle=0;childLayout=stackLayout;horizontal=1;startSize=26;fillColor=none;horizontalStack=0;resizeParent=1;resizeParentMax=0;resizeLast=0;collapsible=1;marginBottom=0;hachureGap=4;fontFamily=Helvetica;fontSize=20;" vertex="1" parent="EFiuUMdO6zvA_WgakpX5-1">
                    <mxGeometry x="110" y="450" width="220" height="262" as="geometry"/>
                </mxCell>
                <mxCell id="EFiuUMdO6zvA_WgakpX5-22" value="address_id: int" style="text;strokeColor=none;fillColor=none;align=left;verticalAlign=top;spacingLeft=4;spacingRight=4;overflow=hidden;rotatable=0;points=[[0,0.5],[1,0.5]];portConstraint=eastwest;hachureGap=4;fontFamily=Helvetica;fontSize=20;" vertex="1" parent="EFiuUMdO6zvA_WgakpX5-21">
                    <mxGeometry y="26" width="220" height="34" as="geometry"/>
                </mxCell>
                <mxCell id="EFiuUMdO6zvA_WgakpX5-23" value="street: varchar" style="text;strokeColor=none;fillColor=none;align=left;verticalAlign=top;spacingLeft=4;spacingRight=4;overflow=hidden;rotatable=0;points=[[0,0.5],[1,0.5]];portConstraint=eastwest;hachureGap=4;fontFamily=Helvetica;fontSize=20;" vertex="1" parent="EFiuUMdO6zvA_WgakpX5-21">
                    <mxGeometry y="60" width="220" height="38" as="geometry"/>
                </mxCell>
                <mxCell id="EFiuUMdO6zvA_WgakpX5-24" value="housenumber: varchar" style="text;strokeColor=none;fillColor=none;align=left;verticalAlign=top;spacingLeft=4;spacingRight=4;overflow=hidden;rotatable=0;points=[[0,0.5],[1,0.5]];portConstraint=eastwest;hachureGap=4;fontFamily=Helvetica;fontSize=20;" vertex="1" parent="EFiuUMdO6zvA_WgakpX5-21">
                    <mxGeometry y="98" width="220" height="42" as="geometry"/>
                </mxCell>
                <mxCell id="EFiuUMdO6zvA_WgakpX5-25" value="city: varchar" style="text;strokeColor=none;fillColor=none;align=left;verticalAlign=top;spacingLeft=4;spacingRight=4;overflow=hidden;rotatable=0;points=[[0,0.5],[1,0.5]];portConstraint=eastwest;hachureGap=4;fontFamily=Helvetica;fontSize=20;" vertex="1" parent="EFiuUMdO6zvA_WgakpX5-21">
                    <mxGeometry y="140" width="220" height="38" as="geometry"/>
                </mxCell>
                <mxCell id="EFiuUMdO6zvA_WgakpX5-27" value="country: varchar" style="text;strokeColor=none;fillColor=none;align=left;verticalAlign=top;spacingLeft=4;spacingRight=4;overflow=hidden;rotatable=0;points=[[0,0.5],[1,0.5]];portConstraint=eastwest;hachureGap=4;fontFamily=Helvetica;fontSize=20;" vertex="1" parent="EFiuUMdO6zvA_WgakpX5-21">
                    <mxGeometry y="178" width="220" height="42" as="geometry"/>
                </mxCell>
                <mxCell id="EFiuUMdO6zvA_WgakpX5-26" value="postcode: varchar" style="text;strokeColor=none;fillColor=none;align=left;verticalAlign=top;spacingLeft=4;spacingRight=4;overflow=hidden;rotatable=0;points=[[0,0.5],[1,0.5]];portConstraint=eastwest;hachureGap=4;fontFamily=Helvetica;fontSize=20;" vertex="1" parent="EFiuUMdO6zvA_WgakpX5-21">
                    <mxGeometry y="220" width="220" height="42" as="geometry"/>
                </mxCell>
                <mxCell id="EFiuUMdO6zvA_WgakpX5-28" style="edgeStyle=orthogonalEdgeStyle;rounded=0;hachureGap=4;orthogonalLoop=1;jettySize=auto;html=1;exitX=0;exitY=0.5;exitDx=0;exitDy=0;entryX=0;entryY=0.5;entryDx=0;entryDy=0;fontFamily=Helvetica;fontSize=16;startArrow=none;startFill=0;endArrow=none;endFill=0;startSize=14;endSize=14;sourcePerimeterSpacing=8;targetPerimeterSpacing=8;" edge="1" parent="EFiuUMdO6zvA_WgakpX5-1" source="EFiuUMdO6zvA_WgakpX5-22" target="EFiuUMdO6zvA_WgakpX5-5">
                    <mxGeometry relative="1" as="geometry"/>
                </mxCell>
            </root>
        </mxGraphModel>
    </diagram>
</mxfile>